<svg width="204px" height="169px" viewBox="0 0 204 169" version="1.1" xmlns="http://www.w3.org/2000/svg" xmlns:xlink="http://www.w3.org/1999/xlink">
    <!-- Generator: Sketch 50.2 (55047) - http://www.bohemiancoding.com/sketch -->
    <desc>Created with Sketch.</desc>
    <defs>
        <radialGradient cx="50%" cy="100%" fx="50%" fy="100%" r="100.952609%" gradientTransform="translate(0.500000,1.000000),scale(0.823595,1.000000),translate(-0.500000,-1.000000)" id="radialGradient-1">
            <stop stop-color="#1EE1FF" offset="0%"></stop>
            <stop stop-color="#1EE1FF" stop-opacity="0.292487545" offset="100%"></stop>
        </radialGradient>
    </defs>
    <g id="Page-1" stroke="none" stroke-width="1" fill="none" fill-rule="evenodd">
        <g id="WiFi" transform="translate(-26.000000, -44.000000)" fill="url(#radialGradient-1)">
            <path d="M26.2583441,78.4800778 C54.3079052,57.3059219 89.227747,44.75 127.080182,44.75 C165.716136,44.75 201.296836,57.8311001 229.634975,79.8059935 L207.680945,108.543162 C185.504609,91.4996308 157.709243,81.3620219 127.537832,81.3620219 C97.8894158,81.3620219 70.5353848,91.1512239 48.5529883,107.6631 L26.2583441,78.4800778 Z M66.3801844,130.998367 C83.4239878,118.220966 104.596954,110.651639 127.537832,110.651639 C151.001022,110.651639 172.614881,118.569563 189.853178,131.879177 L168.062988,160.401883 C156.917815,151.601058 142.84124,146.348361 127.537832,146.348361 C112.756837,146.348361 99.1203441,151.248555 88.1642459,159.513052 L66.3801844,130.998367 Z M106.057976,182.93541 C112.171923,178.352704 119.766673,175.637978 127.995482,175.637978 C136.485466,175.637978 144.300504,178.527765 150.51064,183.377382 L128.453132,212.25 L106.057976,182.93541 Z" id="Combined-Shape"></path>
        </g>
    </g>
</svg>
